<svg width="222px" height="36px" viewBox="0 0 222 36" version="1.1" xmlns="http://www.w3.org/2000/svg" xmlns:xlink="http://www.w3.org/1999/xlink">
    <!-- Generator: Sketch 52.5 (67469) - http://www.bohemiancoding.com/sketch -->
    <title>Logo/BMAT/Horizontal</title>
    <desc>Created with Sketch.</desc>
    <g id="Horizontal" stroke="none" stroke-width="1" fill="none" fill-rule="evenodd">
        <g id="Navbar-Languages" transform="translate(-58.000000, -17.000000)" fill="#FFFFFF">
            <g id="Logo/BMAT/Horizontal" transform="translate(58.000000, 17.000000)">
                <path d="M22.965258,16.4584759 C18.50662,16.4584759 14.8790323,20.0826828 14.8790323,24.5369586 C14.8790323,28.9914414 18.50662,32.6156483 22.965258,32.6156483 C27.423689,32.6156483 31.0512767,28.9914414 31.0512767,24.5369586 C31.0512767,20.0826828 27.423689,16.4584759 22.965258,16.4584759 M22.965258,35.9355103 C16.6740845,35.9355103 11.5560733,30.822269 11.5560733,24.5369586 C11.5560733,18.2518552 16.6740845,13.1386138 22.965258,13.1386138 C29.2562244,13.1386138 34.3742356,18.2518552 34.3742356,24.5369586 C34.3742356,30.822269 29.2562244,35.9355103 22.965258,35.9355103" id="Fill-1"></path>
                <path d="M36.8841403,34.7183172 C36.587381,34.7183172 36.2873082,34.6392828 36.0164351,34.472731 C35.2342578,33.9931448 34.9896851,32.970869 35.4695116,32.1896276 C36.8806198,29.8932828 37.6267634,27.2470759 37.6267634,24.5369379 C37.6267634,16.4603172 31.0495993,9.88907586 22.9652373,9.88907586 C14.8806683,9.88907586 8.3035041,16.4603172 8.3035041,24.5369379 C8.3035041,27.2470759 9.04964776,29.8932828 10.460756,32.1896276 C10.9409966,32.970869 10.6962168,33.9931448 9.91424664,34.472731 C9.13310485,34.9523172 8.10946119,34.7083862 7.62880634,33.926731 C5.89629515,31.1075586 4.98054515,27.8605241 4.98054515,24.5369379 C4.98054515,14.6294897 13.0483399,6.56921379 22.9652373,6.56921379 C32.8819276,6.56921379 40.9497224,14.6294897 40.9497224,24.5369379 C40.9497224,27.8605241 40.0339724,31.1075586 38.3016683,33.926731 C37.9877205,34.4369379 37.4424537,34.7183172 36.8841403,34.7183172" id="Fill-4"></path>
                <path d="M44.2222757,34.7185034 C44.0160146,34.7185034 43.806647,34.6800207 43.6034922,34.5987103 C42.7517328,34.2569172 42.3387963,33.2902966 42.6809082,32.4395379 C43.6904698,29.9278138 44.2021881,27.2689862 44.2021881,24.5369172 C44.2021881,12.8379517 34.6752403,3.31988276 22.9653616,3.31988276 C18.621244,3.31988276 14.4452832,4.62064138 10.8887272,7.08188276 C7.41169366,9.48788276 4.75535597,12.8280207 3.20694739,16.7408483 C2.86959851,17.5938828 1.90373284,18.0120207 1.05114515,17.6745724 C0.197729104,17.3375379 -0.220384701,16.3731931 0.11675709,15.5207793 C1.90725336,10.9951241 4.97777015,7.1334 8.99655,4.35229655 C13.1116265,1.50498621 17.9419903,2.06896552e-05 22.9653616,2.06896552e-05 C36.5075687,2.06896552e-05 47.5253541,11.007331 47.5253541,24.5369172 C47.5253541,27.6945724 46.933078,30.7696759 45.7644716,33.6767793 C45.503953,34.3247793 44.8808205,34.7185034 44.2222757,34.7185034" id="Fill-6"></path>
                <path d="M64.9821336,31.8283862 L64.9821336,33.5412828 L61.0534377,33.5412828 L61.0534377,12.3656276 L64.9821336,11.7145241 L64.9821336,17.9032138 L65.2600478,17.6574207 C66.6980776,16.3881103 68.3935198,15.7444552 70.2989507,15.7444552 C74.3630832,15.7444552 78.68235,18.9172138 78.68235,24.7970069 C78.68235,30.6964552 74.3630832,33.8795586 70.2989507,33.8795586 C68.3744675,33.8795586 66.6784041,33.2683862 65.2575627,32.0623862 L64.9821336,31.8283862 Z M69.8679974,30.200731 C72.7533761,30.200731 74.6919414,28.0413517 74.6919414,24.8274207 C74.6919414,21.2797655 72.265266,19.4234897 69.8679974,19.4234897 C67.4212343,19.4234897 64.8901858,21.4334897 64.8901858,24.7970069 C64.8901858,28.1793517 67.4212343,30.200731 69.8679974,30.200731 Z" id="Combined-Shape"></path>
                <path d="M117.007192,15.7444552 C118.931882,15.7444552 120.627945,16.3558345 122.048787,17.5618345 L122.324009,17.7958345 L122.324009,16.082731 L126.252912,16.082731 L126.252912,33.3261103 L122.324009,33.3261103 L122.324009,31.7214207 L122.046302,31.9665931 C120.608272,33.2361103 118.91283,33.8795586 117.007192,33.8795586 C112.943266,33.8795586 108.623999,30.7070069 108.623999,24.8274207 C108.623999,18.9277655 112.943266,15.7444552 117.007192,15.7444552 Z M117.438352,30.200731 C119.885115,30.200731 122.416164,28.190731 122.416164,24.8274207 C122.416164,21.444869 119.885115,19.4234897 117.438352,19.4234897 C114.552766,19.4234897 112.614201,21.5830759 112.614201,24.7970069 C112.614201,28.3444552 115.041083,30.200731 117.438352,30.200731 Z" id="Combined-Shape"></path>
                <path d="M102.691691,33.5413862 L106.620387,33.5413862 L106.620387,22.9207655 C106.620387,18.5614552 103.994285,15.7443517 99.9299451,15.7443517 C97.7677231,15.7443517 95.9523761,16.5487655 94.5342269,18.1352483 L94.3998257,18.2860759 L94.2768146,18.1259379 C93.0804582,16.5680069 91.3305515,15.7443517 89.2165813,15.7443517 C87.6072884,15.7443517 86.2699041,16.2034552 85.1278052,17.1473172 L84.8540328,17.3732483 L84.8540328,16.0830414 L80.925544,16.0830414 L80.925544,33.5413862 L84.8540328,33.5413862 L84.8540328,23.6895931 C84.8540328,21.2355931 86.3908444,19.4544207 88.5083351,19.4544207 C90.6156784,19.4544207 91.8240459,20.8971103 91.8240459,23.4127655 L91.8240459,33.5413862 L95.7220925,33.5413862 L95.7220925,23.5973172 C95.7220925,21.1193172 97.1781392,19.4544207 99.3455384,19.4544207 C101.565746,19.4544207 102.691691,20.8069034 102.691691,23.4744207 L102.691691,33.5413862 Z" id="Fill-12"></path>
                <path d="M129.103707,12.3656069 L129.103707,28.5492621 C129.103707,31.8980897 131.025912,33.8187103 134.377863,33.8187103 C134.880677,33.8187103 135.353669,33.7734 135.823141,33.6798828 L135.831011,33.6784345 L135.831011,30.0145034 L135.819414,30.0167793 C135.533423,30.0788483 135.243083,30.1088483 134.932449,30.1088483 C133.583054,30.1088483 133.032817,29.5682276 133.032817,28.2418138 L133.032817,19.7311241 L135.926479,19.7311241 L135.926479,16.0831241 L133.032817,16.0831241 L133.032817,11.7147103 L129.103707,12.3656069 Z" id="Fill-14"></path>
                <path d="M149.63268,21.0124138 L149.588156,21.0124138 L146.764076,16.874069 L146.764076,23.1370345 L145.911281,23.1370345 L145.911281,15.3916552 L146.797417,15.3916552 L149.621497,19.6183448 L152.445785,15.3916552 L153.331714,15.3916552 L153.331714,23.1370345 L152.456968,23.1370345 L152.456968,16.8628966 L149.63268,21.0124138 Z M162.080895,19.8286345 C162.080895,22.085669 160.784929,23.2585655 158.846985,23.2585655 C156.930992,23.2585655 155.624257,22.085669 155.624257,19.8948414 L155.624257,15.3917379 L156.499211,15.3917379 L156.499211,19.8398069 C156.499211,21.5102897 157.38514,22.4510483 158.868936,22.4510483 C160.297854,22.4510483 161.205942,21.5878759 161.205942,19.8948414 L161.205942,15.3917379 L162.080895,15.3917379 L162.080895,19.8286345 Z M167.152788,18.8436414 C168.880536,19.2197793 169.678038,19.8508138 169.678038,21.0458483 C169.678038,22.384469 168.570523,23.2474345 167.031226,23.2474345 C165.801943,23.2474345 164.793624,22.8384 163.863584,22.0081241 L164.406366,21.3665379 C165.214844,22.0968828 165.990187,22.4620552 167.06436,22.4620552 C168.105607,22.4620552 168.792109,21.9197793 168.792109,21.1339862 C168.792109,20.4036414 168.404437,19.9944 166.776299,19.6515724 C164.993051,19.2642621 164.173597,18.6888828 164.173597,17.4052966 C164.173597,16.1659862 165.247978,15.2806759 166.721213,15.2806759 C167.850472,15.2806759 168.659157,15.6019862 169.445269,16.2324 L168.935829,16.9075034 C168.216193,16.3211586 167.496142,16.066469 166.699054,16.066469 C165.690735,16.066469 165.048758,16.6197103 165.048758,17.3279172 C165.048758,18.0694345 165.447405,18.478469 167.152788,18.8436414 Z M171.760075,23.1370345 L171.760075,15.3916552 L172.635028,15.3916552 L172.635028,23.1370345 L171.760075,23.1370345 Z M178.671129,23.2696966 C176.433527,23.2696966 174.783851,21.5102483 174.783851,19.2753517 C174.783851,17.0621793 176.422551,15.258869 178.704264,15.258869 C180.110816,15.258869 180.952635,15.7566621 181.727978,16.4872138 L181.129696,17.1285931 C180.476329,16.5089379 179.745303,16.0665931 178.693081,16.0665931 C176.976308,16.0665931 175.691732,17.4494897 175.691732,19.2532138 C175.691732,21.0569379 176.987491,22.4621793 178.693081,22.4621793 C179.756486,22.4621793 180.45417,22.0525241 181.196172,21.3443172 L181.772088,21.908731 C180.963611,22.7274207 180.077474,23.2696966 178.671129,23.2696966 Z M145.988815,33.4158621 L145.988815,25.6704828 L146.863769,25.6704828 L146.863769,33.4158621 L145.988815,33.4158621 Z M155.059276,25.6706276 L155.91207,25.6706276 L155.91207,33.4160069 L155.214386,33.4160069 L150.208203,27.0646966 L150.208203,33.4160069 L149.355615,33.4160069 L149.355615,25.6706276 L150.175068,25.6706276 L155.059276,31.8779379 L155.059276,25.6706276 Z M164.030064,25.6706276 L164.882858,25.6706276 L164.882858,33.4160069 L164.185174,33.4160069 L159.178991,27.0646966 L159.178991,33.4160069 L158.326403,33.4160069 L158.326403,25.6706276 L159.145857,25.6706276 L164.030064,31.8779379 L164.030064,25.6706276 Z M170.896366,33.5483586 C168.537202,33.5483586 166.953381,31.7009793 166.953381,29.5542207 C166.953381,27.407669 168.559361,25.537531 170.918111,25.537531 C173.277275,25.537531 174.861096,27.3853241 174.861096,29.5320828 C174.861096,31.6786345 173.255116,33.5483586 170.896366,33.5483586 Z M170.896366,26.3454621 C169.124301,26.3454621 167.861676,27.7618759 167.861676,29.5320828 C167.861676,31.3024966 169.146252,32.7408414 170.918111,32.7408414 C172.690176,32.7408414 173.952801,31.3246345 173.952801,29.5542207 C173.952801,27.7838069 172.668432,26.3454621 170.896366,26.3454621 Z M182.314601,25.6706276 L183.25603,25.6706276 L179.922095,33.4712483 L179.147166,33.4712483 L175.813438,25.6706276 L176.788002,25.6706276 L179.545606,32.3424207 L182.314601,25.6706276 Z M191.119593,33.4158828 L190.178164,33.4158828 L189.269869,31.3690552 L185.050212,31.3690552 L184.131356,33.4158828 L183.234244,33.4158828 L186.767192,25.6150552 L187.586645,25.6150552 L191.119593,33.4158828 Z M187.165632,26.6329862 L185.393567,30.5832621 L188.926515,30.5832621 L187.165632,26.6329862 Z M194.807319,33.4159034 L193.921183,33.4159034 L193.921183,26.4782483 L191.318689,26.4782483 L191.318689,25.6705241 L197.410021,25.6705241 L197.410021,26.4782483 L194.807319,26.4782483 L194.807319,33.4159034 Z M202.338587,33.5483586 C199.979215,33.5483586 198.395601,31.7009793 198.395601,29.5542207 C198.395601,27.407669 200.001581,25.537531 202.360331,25.537531 C204.719495,25.537531 206.303316,27.3853241 206.303316,29.5320828 C206.303316,31.6786345 204.697337,33.5483586 202.338587,33.5483586 Z M202.338587,26.3454621 C200.566314,26.3454621 199.303896,27.7618759 199.303896,29.5320828 C199.303896,31.3024966 200.588473,32.7408414 202.360331,32.7408414 C204.132396,32.7408414 205.395021,31.3246345 205.395021,29.5542207 C205.395021,27.7838069 204.110652,26.3454621 202.338587,26.3454621 Z M213.712545,33.4158621 L211.463967,30.4061379 L209.248937,30.4061379 L209.248937,33.4158621 L208.374191,33.4158621 L208.374191,25.6706897 L211.707711,25.6706897 C213.413301,25.6706897 214.50984,26.5888966 214.50984,27.9829655 C214.50984,29.2773103 213.623704,30.03 212.405396,30.2511724 L214.786719,33.4158621 L213.712545,33.4158621 Z M211.641236,26.4782069 L209.248937,26.4782069 L209.248937,29.6205517 L211.630053,29.6205517 C212.793068,29.6205517 213.623704,29.0232414 213.623704,28.016069 C213.623704,27.0535862 212.892678,26.4782069 211.641236,26.4782069 Z M219.382616,29.1226138 C221.110157,29.4987517 221.907659,30.1297862 221.907659,31.3248207 C221.907659,32.6632345 220.800351,33.5264069 219.260847,33.5264069 C218.031564,33.5264069 217.023452,33.1173724 216.093413,32.2870966 L216.635987,31.6453034 C217.444465,32.3758552 218.219808,32.7408207 219.294189,32.7408207 C220.335228,32.7408207 221.02173,32.1987517 221.02173,31.4129586 C221.02173,30.6826138 220.634058,30.2733724 219.006127,29.9305448 C217.222879,29.5432345 216.403426,28.9676483 216.403426,27.6840621 C216.403426,26.4449586 217.477806,25.5596483 218.950834,25.5596483 C220.080301,25.5596483 220.888778,25.8807517 221.675097,26.5113724 L221.165657,27.186269 C220.445814,26.5997172 219.725763,26.3454414 218.928676,26.3454414 C217.920564,26.3454414 217.278379,26.8986828 217.278379,27.6068897 C217.278379,28.3484069 217.677233,28.7574414 219.382616,29.1226138 Z" id="Combined-Shape"></path>
            </g>
        </g>
    </g>
</svg>